<?xml version="1.0" encoding="UTF-8"?>
<svg id="Ebene_1" data-name="Ebene 1" xmlns="http://www.w3.org/2000/svg" viewBox="0 0 256 256">
  <defs>
    <style>
      .cls-1 {
        opacity: .12;
      }

      .cls-1, .cls-2, .cls-3 {
        stroke-width: 0px;
      }

      .cls-1, .cls-3 {
        fill: #fff;
      }

      .cls-2 {
        fill: none;
      }
    </style>
  </defs>
  <circle class="cls-1" cx="128" cy="128" r="93.5"/>
  <rect class="cls-2" x="0" y="0" width="256" height="256"/>
  <path class="cls-3" d="M134,134h39.51c3.31,0,6-2.69,6-6,0-3.31-2.69-6-6-6h-39.51s0-39.51,0-39.51c0-3.31-2.69-6-6-6-3.31,0-6,2.69-6,6v39.51s-39.51,0-39.51,0c-3.31,0-6,2.69-6,6,0,1.66.67,3.16,1.76,4.24s2.59,1.76,4.24,1.76h39.51s0,39.51,0,39.51c0,1.66.67,3.16,1.76,4.24s2.59,1.76,4.24,1.76c3.31,0,6-2.69,6-6v-39.51Z"/>
</svg>