<?xml version="1.0" encoding="UTF-8"?>
<svg id="Ebene_1" data-name="Ebene 1" xmlns="http://www.w3.org/2000/svg" viewBox="0 0 256 256">
  <defs>
    <style>
      .cls-1 {
        fill: none;
      }

      .cls-1, .cls-2 {
        stroke-width: 0px;
      }

      .cls-2 {
        fill: #fff;
        opacity: .66;
      }
    </style>
  </defs>
  <rect class="cls-1" x="0" width="256" height="256"/>
  <path class="cls-2" d="M194.11,61.89c-36.51-36.51-95.71-36.51-132.22,0s-36.51,95.71,0,132.22c36.51,36.51,95.71,36.51,132.22,0s36.51-95.71,0-132.22ZM134,173.51c0,3.31-2.69,6-6,6-1.66,0-3.16-.67-4.24-1.76s-1.76-2.59-1.76-4.24v-39.51s-39.51,0-39.51,0c-1.66,0-3.16-.67-4.24-1.76s-1.76-2.59-1.76-4.24c0-3.31,2.69-6,6-6h39.51s0-39.51,0-39.51c0-3.31,2.69-6,6-6,3.31,0,6,2.69,6,6v39.51h39.51c3.31,0,6,2.69,6,6,0,3.31-2.69,6-6,6h-39.51v39.51Z"/>
</svg>