<?xml version="1.0" encoding="UTF-8"?>
<svg id="Ebene_1" data-name="Ebene 1" xmlns="http://www.w3.org/2000/svg" viewBox="0 0 256 256">
  <defs>
    <style>
      .cls-1 {
        fill: none;
      }

      .cls-1, .cls-2 {
        stroke-width: 0px;
      }

      .cls-2 {
        fill: #fff;
      }
    </style>
  </defs>
  <rect class="cls-1" x="0" y="0" width="256" height="256"/>
  <g>
    <path class="cls-2" d="M128,193.9c-31.9,0-57.85-25.95-57.85-57.85s25.95-57.85,57.85-57.85,57.85,25.95,57.85,57.85-25.95,57.85-57.85,57.85ZM128,88.21c-26.38,0-47.85,21.46-47.85,47.85s21.46,47.85,47.85,47.85,47.85-21.46,47.85-47.85-21.46-47.85-47.85-47.85Z"/>
    <g>
      <path class="cls-2" d="M128,149.23c-2.76,0-5-2.24-5-5v-33.44c0-2.76,2.24-5,5-5s5,2.24,5,5v33.44c0,2.76-2.24,5-5,5Z"/>
      <path class="cls-2" d="M128,166.32c-.33,0-.65-.03-.98-.1-.32-.06-.63-.16-.93-.28-.3-.13-.59-.28-.86-.46-.28-.18-.53-.39-.77-.62-.23-.23-.43-.49-.62-.76-.18-.27-.33-.56-.46-.87-.12-.3-.22-.61-.28-.93-.07-.32-.1-.65-.1-.98s.03-.65.1-.98c.06-.31.16-.63.28-.93.13-.3.28-.59.46-.87.19-.27.39-.53.62-.76.24-.23.49-.43.77-.62.27-.18.56-.33.86-.46.3-.12.61-.22.93-.28,1.63-.33,3.36.2,4.52,1.36.23.23.44.49.62.76.18.28.33.57.46.87.12.3.22.62.28.93.07.33.1.66.1.98s-.03.66-.1.98c-.06.32-.16.63-.28.93-.13.31-.28.6-.46.87-.18.27-.39.53-.62.76-.93.93-2.22,1.46-3.54,1.46Z"/>
    </g>
  </g>
</svg>