<?xml version="1.0" encoding="UTF-8"?>
<svg id="Ebene_1" data-name="Ebene 1" xmlns="http://www.w3.org/2000/svg" viewBox="0 0 256 256">
  <defs>
    <style>
      .cls-1 {
        fill: none;
      }

      .cls-1, .cls-2 {
        stroke-width: 0px;
      }

      .cls-3 {
        opacity: .5;
      }

      .cls-2 {
        fill: #fff;
      }
    </style>
  </defs>
  <rect class="cls-1" x="0" y="0" width="256" height="256"/>
  <g id="Gruppe_1" data-name="Gruppe 1" class="cls-3">
    <path id="Polygon_1" data-name="Polygon 1" class="cls-2" d="M44.05,138.47c-5.78-3.47-7.66-10.97-4.19-16.75,1.03-1.72,2.47-3.16,4.19-4.19l65.8-39.47c5.78-3.47,13.28-1.6,16.75,4.18,1.14,1.9,1.74,4.07,1.74,6.29v78.95c0,6.74-5.47,12.21-12.21,12.21-2.21,0-4.38-.6-6.28-1.74l-65.8-39.47Z"/>
    <path id="Polygon_2" data-name="Polygon 2" class="cls-2" d="M133.58,138.47c-5.78-3.47-7.66-10.97-4.19-16.75,1.03-1.72,2.47-3.16,4.19-4.19l65.8-39.47c5.78-3.47,13.28-1.6,16.75,4.18,1.14,1.9,1.74,4.07,1.74,6.29v78.95c0,6.74-5.47,12.21-12.21,12.21-2.21,0-4.38-.6-6.28-1.74l-65.8-39.47Z"/>
  </g>
</svg>