<?xml version="1.0" encoding="UTF-8"?>
<svg id="Ebene_1" data-name="Ebene 1" xmlns="http://www.w3.org/2000/svg" viewBox="0 0 256 256">
  <defs>
    <style>
      .cls-1 {
        fill: none;
      }

      .cls-1, .cls-2 {
        stroke-width: 0px;
      }

      .cls-3 {
        opacity: .66;
      }

      .cls-2 {
        fill: #fff;
      }
    </style>
  </defs>
  <rect class="cls-1" x="0" y="0" width="256" height="256"/>
  <g class="cls-3">
    <path class="cls-2" d="M49.34,171.49h104.27c2.93,0,5.31-2.37,5.32-5.3,0-.57-.08-13.98-11.38-25.31-10.11-10.15-25.61-15.29-46.07-15.29s-35.96,5.14-46.07,15.29c-11.3,11.34-11.39,24.75-11.39,25.31,0,2.93,2.39,5.3,5.32,5.3Z"/>
    <circle class="cls-2" cx="101.48" cy="83.6" r="31.17"/>
    <path class="cls-2" d="M209.3,187.58H46.7c-4.42,0-8,3.58-8,8s3.58,8,8,8h162.59c4.42,0,8-3.58,8-8s-3.58-8-8-8Z"/>
    <path class="cls-2" d="M182.33,171.42h26.93c4.42,0,8-3.58,8-8s-3.58-8-8-8h-26.93c-4.42,0-8,3.58-8,8s3.58,8,8,8Z"/>
    <path class="cls-2" d="M182.33,139.27h26.93c4.42,0,8-3.58,8-8s-3.58-8-8-8h-26.93c-4.42,0-8,3.58-8,8s3.58,8,8,8Z"/>
    <path class="cls-2" d="M182.33,107.12h26.93c4.42,0,8-3.58,8-8s-3.58-8-8-8h-26.93c-4.42,0-8,3.58-8,8s3.58,8,8,8Z"/>
    <path class="cls-2" d="M182.33,74.97h26.93c4.42,0,8-3.58,8-8s-3.58-8-8-8h-26.93c-4.42,0-8,3.58-8,8s3.58,8,8,8Z"/>
  </g>
</svg>