<?xml version="1.0" encoding="UTF-8"?>
<svg id="Ebene_1" data-name="Ebene 1" xmlns="http://www.w3.org/2000/svg" viewBox="0 0 256 256">
  <defs>
    <style>
      .cls-1 {
        fill: none;
      }

      .cls-1, .cls-2 {
        stroke-width: 0px;
      }

      .cls-2 {
        fill: #fff;
        opacity: .66;
      }
    </style>
  </defs>
  <rect class="cls-1" x="0" y="0" width="256" height="256"/>
  <path class="cls-2" d="M185.1,0h-114.21C31.74,0,0,31.74,0,70.9v114.21c0,39.15,31.74,70.9,70.9,70.9h114.21c39.15,0,70.9-31.74,70.9-70.9v-114.21C256,31.74,224.26,0,185.1,0ZM182.27,58.96h26.93c4.42,0,8,3.58,8,8s-3.58,8-8,8h-26.93c-4.42,0-8-3.58-8-8s3.58-8,8-8ZM182.27,91.11h26.93c4.42,0,8,3.58,8,8s-3.58,8-8,8h-26.93c-4.42,0-8-3.58-8-8s3.58-8,8-8ZM182.27,123.26h26.93c4.42,0,8,3.58,8,8s-3.58,8-8,8h-26.93c-4.42,0-8-3.58-8-8s3.58-8,8-8ZM182.27,155.42h26.93c4.42,0,8,3.58,8,8s-3.58,8-8,8h-26.93c-4.42,0-8-3.58-8-8s3.58-8,8-8ZM101.42,52.42c17.22,0,31.17,13.96,31.17,31.17s-13.96,31.17-31.17,31.17-31.17-13.96-31.17-31.17,13.96-31.17,31.17-31.17ZM55.34,140.87c10.11-10.15,25.61-15.29,46.07-15.29s35.96,5.14,46.07,15.29c11.3,11.34,11.39,24.75,11.38,25.31,0,2.93-2.39,5.3-5.32,5.3H49.28c-2.93,0-5.31-2.37-5.32-5.3,0-.57.08-13.98,11.39-25.31ZM209.24,203.57H46.65c-4.42,0-8-3.58-8-8s3.58-8,8-8h162.59c4.42,0,8,3.58,8,8s-3.58,8-8,8Z"/>
</svg>