<?xml version="1.0" encoding="UTF-8"?>
<svg id="Ebene_1" data-name="Ebene 1" xmlns="http://www.w3.org/2000/svg" viewBox="0 0 256 256">
  <defs>
    <style>
      .cls-1 {
        fill: none;
      }

      .cls-1, .cls-2 {
        stroke-width: 0px;
      }

      .cls-2 {
        fill: #fff;
        opacity: .66;
      }
    </style>
  </defs>
  <rect class="cls-1" x="0" y="0" width="256" height="256"/>
  <path class="cls-2" d="M93.52,208.75c-2.07,0-4.17-.45-6.16-1.37-5.24-2.41-8.49-7.5-8.49-13.26v-17.4c-22.24-.74-40.1-19.06-40.1-41.47v-46.49c0-22.88,18.61-41.49,41.49-41.49h95.28c22.88,0,41.49,18.61,41.49,41.49v46.49c0,22.88-18.61,41.49-41.49,41.49h-39.21l-33.38,28.49c-2.72,2.32-6.05,3.52-9.44,3.52ZM80.27,63.26c-14.06,0-25.49,11.44-25.49,25.49v46.49c0,14.06,11.44,25.49,25.49,25.49,8.05,0,14.6,6.55,14.6,14.6v15.75l31.47-26.86c2.64-2.25,6.01-3.5,9.48-3.5h39.73c14.06,0,25.49-11.44,25.49-25.49v-46.49c0-14.06-11.44-25.49-25.49-25.49h-95.28Z"/>
  <path class="cls-2" d="M145.35,108.11c.06-.73.1-1.46.1-2.21,0-11.44-7.83-20.75-17.45-20.75s-17.45,9.31-17.45,20.75c0,.75.04,1.48.1,2.21-2.33.55-4.06,2.63-4.06,5.12v19.46c0,2.91,2.36,5.28,5.28,5.28h32.27c2.91,0,5.28-2.36,5.28-5.28v-19.46c0-2.49-1.74-4.57-4.06-5.12ZM128,90.93c6.44,0,11.68,6.72,11.68,14.97,0,.7-.05,1.38-.12,2.06h-23.1c-.07-.67-.12-1.36-.12-2.06,0-8.25,5.24-14.97,11.68-14.97Z"/>
</svg>