<?xml version="1.0" encoding="UTF-8"?>
<svg id="Ebene_1" data-name="Ebene 1" xmlns="http://www.w3.org/2000/svg" viewBox="0 0 256 256">
  <defs>
    <style>
      .cls-1 {
        fill: none;
      }

      .cls-1, .cls-2 {
        stroke-width: 0px;
      }

      .cls-2 {
        fill: #fff;
        opacity: .66;
      }
    </style>
  </defs>
  <rect class="cls-1" x="0" y="0" width="256" height="256"/>
  <path class="cls-2" d="M128,34.5c-51.64,0-93.5,41.86-93.5,93.5s41.86,93.5,93.5,93.5,93.5-41.86,93.5-93.5-41.86-93.5-93.5-93.5ZM166.54,99.08l-42.42,64.44c-1.02,1.55-2.7,2.54-4.55,2.68-.16.01-.31.02-.47.02-1.68,0-3.3-.71-4.44-1.97l-24.64-27.12c-2.23-2.45-2.05-6.25.41-8.48,2.45-2.23,6.25-2.05,8.48.41l19.44,21.39,38.17-57.98c1.82-2.77,5.54-3.53,8.31-1.71,2.77,1.82,3.53,5.54,1.71,8.31Z"/>
</svg>