<?xml version="1.0" encoding="UTF-8"?>
<svg id="Ebene_1" data-name="Ebene 1" xmlns="http://www.w3.org/2000/svg" viewBox="0 0 256 256">
  <defs>
    <style>
      .cls-1 {
        fill: none;
      }

      .cls-1, .cls-2 {
        stroke-width: 0px;
      }

      .cls-2 {
        fill: #fff;
      }
    </style>
  </defs>
  <rect class="cls-1" x="0" y="0" width="256" height="256"/>
  <g id="Gruppe_1" data-name="Gruppe 1">
    <path id="Polygon_1" data-name="Polygon 1" class="cls-2" d="M146.14,177.95c-1.9,1.14-4.07,1.74-6.28,1.74-6.74,0-12.21-5.46-12.21-12.21v-78.95c0-2.21.6-4.39,1.74-6.29,3.47-5.78,10.97-7.65,16.75-4.18l65.8,39.47c1.72,1.03,3.16,2.47,4.19,4.19,3.47,5.78,1.59,13.28-4.19,16.75l-65.8,39.47Z"/>
    <path id="Polygon_2" data-name="Polygon 2" class="cls-2" d="M56.61,177.95c-1.9,1.14-4.07,1.74-6.28,1.74-6.74,0-12.21-5.46-12.21-12.21v-78.95c0-2.21.6-4.39,1.74-6.29,3.47-5.78,10.97-7.65,16.75-4.18l65.8,39.47c1.72,1.03,3.16,2.47,4.19,4.19,3.47,5.78,1.59,13.28-4.19,16.75l-65.8,39.47Z"/>
  </g>
</svg>