<?xml version="1.0" encoding="UTF-8"?>
<svg id="Ebene_1" data-name="Ebene 1" xmlns="http://www.w3.org/2000/svg" viewBox="0 0 256 256">
  <defs>
    <style>
      .cls-1 {
        opacity: .12;
      }

      .cls-1, .cls-2, .cls-3 {
        stroke-width: 0px;
      }

      .cls-1, .cls-3 {
        fill: #fff;
      }

      .cls-2 {
        fill: none;
      }
    </style>
  </defs>
  <circle class="cls-1" cx="128" cy="128" r="93.5"/>
  <rect class="cls-2" x="0" y="0" width="256" height="256"/>
  <path class="cls-3" d="M136.49,128l27.94-27.94c2.34-2.34,2.34-6.14,0-8.49-2.34-2.34-6.14-2.34-8.49,0l-27.94,27.94-27.94-27.94c-2.34-2.34-6.14-2.34-8.49,0-2.34,2.34-2.34,6.14,0,8.49l27.94,27.94-27.94,27.94c-2.34,2.34-2.34,6.14,0,8.49,1.17,1.17,2.71,1.76,4.24,1.76s3.07-.59,4.24-1.76l27.94-27.94,27.94,27.94c1.17,1.17,2.71,1.76,4.24,1.76s3.07-.59,4.24-1.76c2.34-2.34,2.34-6.14,0-8.49l-27.94-27.94Z"/>
</svg>