<?xml version="1.0" encoding="UTF-8"?>
<svg id="Ebene_1" data-name="Ebene 1" xmlns="http://www.w3.org/2000/svg" viewBox="0 0 256 256">
  <defs>
    <style>
      .cls-1 {
        fill: none;
      }

      .cls-1, .cls-2 {
        stroke-width: 0px;
      }

      .cls-2 {
        fill: #fff;
        opacity: .66;
      }
    </style>
  </defs>
  <rect class="cls-1" x="0" width="256" height="256"/>
  <path class="cls-2" d="M128,34.5c-51.64,0-93.5,41.86-93.5,93.5s41.86,93.5,93.5,93.5,93.5-41.86,93.5-93.5-41.86-93.5-93.5-93.5ZM164.42,155.94c2.34,2.34,2.34,6.14,0,8.49-1.17,1.17-2.71,1.76-4.24,1.76s-3.07-.59-4.24-1.76l-27.94-27.94-27.94,27.94c-1.17,1.17-2.71,1.76-4.24,1.76s-3.07-.59-4.24-1.76c-2.34-2.34-2.34-6.14,0-8.49l27.94-27.94-27.94-27.94c-2.34-2.34-2.34-6.14,0-8.49,2.34-2.34,6.14-2.34,8.49,0l27.94,27.94,27.94-27.94c2.34-2.34,6.14-2.34,8.49,0,2.34,2.34,2.34,6.14,0,8.49l-27.94,27.94,27.94,27.94Z"/>
</svg>