<?xml version="1.0" encoding="UTF-8"?>
<svg id="Ebene_1" data-name="Ebene 1" xmlns="http://www.w3.org/2000/svg" viewBox="0 0 256 256">
  <defs>
    <style>
      .cls-1 {
        fill: none;
      }

      .cls-1, .cls-2 {
        stroke-width: 0px;
      }

      .cls-3 {
        opacity: .66;
      }

      .cls-2 {
        fill: #fff;
      }
    </style>
  </defs>
  <rect class="cls-1" x="0" y="0" width="256" height="256"/>
  <g class="cls-3">
    <path class="cls-2" d="M134.4,127.58c.17-2.76,2.53-4.86,5.3-4.68,2.76.17,4.85,2.55,4.68,5.3l-1.67,26.54c-.17,2.65-2.37,4.69-4.99,4.69-.11,0-.21,0-.32,0-2.76-.17-4.85-2.55-4.68-5.3l1.67-26.54ZM118.93,122.9c2.75-.18,5.13,1.92,5.3,4.68l1.67,26.54c.17,2.76-1.92,5.13-4.68,5.3-.11,0-.21,0-.32,0-2.62,0-4.82-2.04-4.99-4.69l-1.67-26.54c-.17-2.76,1.92-5.13,4.68-5.3Z"/>
    <path class="cls-2" d="M128,34.5c-51.64,0-93.5,41.86-93.5,93.5s41.86,93.5,93.5,93.5,93.5-41.86,93.5-93.5-41.86-93.5-93.5-93.5ZM165.8,113.19l-9.43,57.56c-.4,2.42-2.48,4.19-4.93,4.19h-44.85c-2.45,0-4.54-1.77-4.93-4.19l-9.43-57.56c-.24-1.45.17-2.93,1.12-4.05.02-.02.04-.04.05-.05-1.45-.54-2.63-1.73-3.08-3.32-.75-2.66.8-5.42,3.46-6.17l65.23-18.36c2.66-.75,5.42.8,6.17,3.46.75,2.66-.8,5.42-3.46,6.17l-58.68,16.51h57.84c1.47,0,2.86.64,3.81,1.76.95,1.12,1.36,2.6,1.12,4.05Z"/>
  </g>
</svg>