<?xml version="1.0" encoding="UTF-8"?>
<svg id="Ebene_1" data-name="Ebene 1" xmlns="http://www.w3.org/2000/svg" viewBox="0 0 256 256">
  <defs>
    <style>
      .cls-1 {
        opacity: .12;
      }

      .cls-1, .cls-2, .cls-3 {
        stroke-width: 0px;
      }

      .cls-1, .cls-3 {
        fill: #fff;
      }

      .cls-2 {
        fill: none;
      }
    </style>
  </defs>
  <rect class="cls-2" x="0" width="256" height="256"/>
  <circle class="cls-1" cx="128" cy="128" r="93.5"/>
  <g>
    <path class="cls-3" d="M164.68,109.14c-.95-1.12-2.34-1.76-3.81-1.76h-57.84l58.68-16.51c2.66-.75,4.21-3.51,3.46-6.17s-3.51-4.21-6.17-3.46l-65.23,18.36c-2.66.75-4.21,3.51-3.46,6.17.45,1.6,1.63,2.79,3.08,3.32-.02.02-.04.04-.05.05-.95,1.12-1.36,2.6-1.12,4.05l9.43,57.56c.4,2.42,2.48,4.19,4.93,4.19h44.85c2.45,0,4.54-1.77,4.93-4.19l9.43-57.56c.24-1.45-.17-2.93-1.12-4.05ZM147.19,164.94h-36.36l-7.79-47.56h51.95l-7.79,47.56Z"/>
    <path class="cls-3" d="M137.41,159.42c.11,0,.21.01.32.01,2.62,0,4.82-2.04,4.99-4.69l1.67-26.54c.17-2.76-1.92-5.13-4.68-5.3-2.77-.17-5.13,1.92-5.3,4.68l-1.67,26.54c-.17,2.76,1.92,5.13,4.68,5.3Z"/>
    <path class="cls-3" d="M120.91,159.43c.11,0,.21,0,.32-.01,2.76-.17,4.85-2.55,4.68-5.3l-1.67-26.54c-.17-2.76-2.55-4.85-5.3-4.68-2.76.17-4.85,2.55-4.68,5.3l1.67,26.54c.17,2.65,2.37,4.69,4.99,4.69Z"/>
  </g>
</svg>