<?xml version="1.0" encoding="UTF-8"?>
<svg id="Ebene_1" data-name="Ebene 1" xmlns="http://www.w3.org/2000/svg" viewBox="0 0 256 256">
  <defs>
    <style>
      .cls-1 {
        fill: none;
      }

      .cls-1, .cls-2 {
        stroke-width: 0px;
      }

      .cls-2 {
        fill: #fff;
        opacity: .66;
      }
    </style>
  </defs>
  <rect class="cls-1" x="0" width="256" height="256"/>
  <path class="cls-2" d="M128,34.5c-51.64,0-93.5,41.86-93.5,93.5s41.86,93.5,93.5,93.5,93.5-41.86,93.5-93.5-41.86-93.5-93.5-93.5ZM107.32,158.5c-2.37,2.37-5.08,4.38-8.07,5.98l-9.8,5.24c-1.83.98-4.14-1.33-3.16-3.16l5.24-9.8c1.6-2.99,3.61-5.7,5.98-8.07l.76-.76,9.82,9.82-.76.76ZM168.64,97.18l-57.63,57.63-9.82-9.82,57.63-57.63c1.94-1.94,5.35-1.69,7.6.56l1.66,1.66c2.25,2.25,2.5,5.66.56,7.6Z"/>
</svg>