<?xml version="1.0" encoding="UTF-8"?>
<svg id="Ebene_1" data-name="Ebene 1" xmlns="http://www.w3.org/2000/svg" viewBox="0 0 256 256">
  <defs>
    <style>
      .cls-1 {
        fill: none;
      }

      .cls-1, .cls-2 {
        stroke-width: 0px;
      }

      .cls-3 {
        opacity: .66;
      }

      .cls-2 {
        fill: #fff;
      }
    </style>
  </defs>
  <rect class="cls-1" x="0" width="256" height="256"/>
  <g class="cls-3">
    <path class="cls-2" d="M128.43,130.14c18.15,0,32.91-14.76,32.91-32.91s-14.76-32.91-32.91-32.91-32.91,14.76-32.91,32.91,14.76,32.91,32.91,32.91ZM128.43,74.33c12.63,0,22.91,10.28,22.91,22.91s-10.28,22.91-22.91,22.91-22.91-10.28-22.91-22.91,10.28-22.91,22.91-22.91Z"/>
    <path class="cls-2" d="M171.6,155.59c-11.52-7.74-26.73-12.01-42.85-12.01s-31.33,4.26-42.85,12.01c-12.13,8.15-18.8,19.19-18.8,31.08,0,2.76,2.24,5,5,5h113.31c2.76,0,5-2.24,5-5,0-11.89-6.68-22.93-18.8-31.08ZM77.68,181.67c3.77-15.88,25.24-28.09,51.07-28.09s47.29,12.21,51.07,28.09h-102.13Z"/>
    <path class="cls-2" d="M195.14,128.25c12.89,0,23.37-10.48,23.37-23.37s-10.48-23.37-23.37-23.37-23.37,10.48-23.37,23.37,10.48,23.37,23.37,23.37ZM195.14,91.51c7.37,0,13.37,6,13.37,13.37s-6,13.37-13.37,13.37-13.37-6-13.37-13.37,6-13.37,13.37-13.37Z"/>
    <path class="cls-2" d="M60.45,128.25c12.89,0,23.37-10.48,23.37-23.37s-10.48-23.37-23.37-23.37-23.37,10.48-23.37,23.37,10.48,23.37,23.37,23.37ZM60.45,91.51c7.37,0,13.37,6,13.37,13.37s-6,13.37-13.37,13.37-13.37-6-13.37-13.37,6-13.37,13.37-13.37Z"/>
    <path class="cls-2" d="M195.34,133.67c-11.66,0-22.06,3.2-29.64,8.45,3.67,1.64,7.15,3.53,10.38,5.66,5.42-2.56,12.11-4.1,19.26-4.1,14.74,0,27.55,6.52,31.23,15.07h-37.9c2.68,3.14,4.88,6.49,6.57,10h37.38c2.76,0,5-2.24,5-5,0-16.86-18.57-30.07-42.29-30.07Z"/>
    <path class="cls-2" d="M29.43,158.74c3.68-8.55,16.49-15.07,31.23-15.07,7.44,0,14.39,1.66,19.92,4.41.05-.04.1-.07.15-.11,3.11-2.09,6.45-3.95,9.98-5.58-7.61-5.42-18.19-8.72-30.05-8.72-23.71,0-42.29,13.21-42.29,30.07,0,2.76,2.24,5,5,5h38.66c1.68-3.51,3.86-6.85,6.52-10H29.43Z"/>
  </g>
</svg>