<?xml version="1.0" encoding="UTF-8"?>
<svg id="Ebene_1" data-name="Ebene 1" xmlns="http://www.w3.org/2000/svg" viewBox="0 0 256 256">
  <defs>
    <style>
      .cls-1 {
        fill: none;
      }

      .cls-1, .cls-2 {
        stroke-width: 0px;
      }

      .cls-2 {
        fill: #fff;
        opacity: .66;
      }
    </style>
  </defs>
  <rect class="cls-1" x="0" y="0" width="256" height="256"/>
  <path class="cls-2" d="M185.1,0h-114.21C31.74,0,0,31.74,0,70.9v114.21C0,224.26,31.74,256,70.9,256h114.21c39.15,0,70.9-31.74,70.9-70.9v-114.21C256,31.74,224.26,0,185.1,0ZM195.13,81.5c12.89,0,23.37,10.48,23.37,23.37s-10.48,23.37-23.37,23.37-23.37-10.48-23.37-23.37,10.48-23.37,23.37-23.37ZM128.43,64.32c18.15,0,32.91,14.76,32.91,32.91s-14.76,32.91-32.91,32.91-32.91-14.76-32.91-32.91,14.76-32.91,32.91-32.91ZM60.45,81.5c12.89,0,23.37,10.48,23.37,23.37s-10.48,23.37-23.37,23.37-23.37-10.48-23.37-23.37,10.48-23.37,23.37-23.37ZM23.37,168.74c-2.76,0-5-2.24-5-5,0-16.86,18.58-30.07,42.29-30.07,11.86,0,22.44,3.31,30.05,8.72-3.53,1.63-6.87,3.49-9.98,5.58-.05.04-.1.07-.16.11-8.08,5.62-12.02,10.66-12.02,10.66-2.66,3.15-4.84,6.49-6.52,10H23.37ZM185.4,191.67h-113.31c-2.76,0-5-2.24-5-5,0-11.89,6.68-22.93,18.8-31.08,11.52-7.74,26.74-12.01,42.85-12.01s31.33,4.26,42.85,12.01c12.13,8.15,18.8,19.19,18.8,31.08,0,2.76-2.24,5-5,5ZM232.63,168.74h-37.38c-1.69-3.51-3.89-6.86-6.57-10,0,0-6.55-7.54-12.6-10.97-3.23-2.13-6.71-4.02-10.38-5.66,7.58-5.25,17.99-8.45,29.64-8.45,23.71,0,42.29,13.21,42.29,30.07,0,2.76-2.24,5-5,5Z"/>
</svg>