<?xml version="1.0" encoding="UTF-8"?>
<svg id="Ebene_1" data-name="Ebene 1" xmlns="http://www.w3.org/2000/svg" viewBox="0 0 256 256">
  <defs>
    <style>
      .cls-1 {
        fill: none;
      }

      .cls-1, .cls-2 {
        stroke-width: 0px;
      }

      .cls-3 {
        opacity: .66;
      }

      .cls-2 {
        fill: #fff;
      }
    </style>
  </defs>
  <rect class="cls-1" x="0" y="0" width="256" height="256"/>
  <g class="cls-3">
    <path class="cls-2" d="M128,34.5c-51.64,0-93.5,41.86-93.5,93.5s41.86,93.5,93.5,93.5,93.5-41.86,93.5-93.5-41.86-93.5-93.5-93.5ZM180.09,153.85c0,7.75-6.3,14.05-14.05,14.05h-76.07c-7.75,0-14.05-6.3-14.05-14.05v-51.7c0-7.75,6.3-14.05,14.05-14.05h76.07c7.75,0,14.05,6.3,14.05,14.05v51.7Z"/>
    <path class="cls-2" d="M166.04,98.12h-76.07c-2.22,0-4.03,1.81-4.03,4.03v51.7c0,1.05.42,2.01,1.08,2.73l16.04-20.05c.95-1.19,2.39-1.88,3.91-1.88s2.96.69,3.91,1.88l12.1,15.12,24.26-30.33c.94-1.17,2.35-1.86,3.85-1.88,1.51-.04,2.93.64,3.89,1.78l15.09,17.94v-37c0-2.22-1.81-4.03-4.03-4.03ZM100.03,117.88c-2.77,0-5.01-2.24-5.01-5.01s2.24-5.01,5.01-5.01,5.01,2.24,5.01,5.01-2.24,5.01-5.01,5.01Z"/>
  </g>
</svg>