<?xml version="1.0" encoding="UTF-8"?>
<svg id="Ebene_1" data-name="Ebene 1" xmlns="http://www.w3.org/2000/svg" viewBox="0 0 256 256">
  <defs>
    <style>
      .cls-1 {
        opacity: .12;
      }

      .cls-1, .cls-2, .cls-3 {
        stroke-width: 0px;
      }

      .cls-1, .cls-3 {
        fill: #fff;
      }

      .cls-2 {
        fill: none;
      }
    </style>
  </defs>
  <circle class="cls-1" cx="128" cy="128" r="93.5"/>
  <rect class="cls-2" x="0" y="0" width="256" height="256"/>
  <g>
    <path class="cls-3" d="M166.04,88.1h-76.07c-7.75,0-14.05,6.3-14.05,14.05v51.7c0,7.75,6.3,14.05,14.05,14.05h76.07c7.75,0,14.05-6.3,14.05-14.05v-51.7c0-7.75-6.3-14.05-14.05-14.05ZM85.93,102.15c0-2.22,1.81-4.03,4.03-4.03h76.07c2.22,0,4.03,1.81,4.03,4.03v37.01l-15.09-17.94c-.97-1.15-2.4-1.8-3.89-1.78-1.5.02-2.91.71-3.85,1.88l-24.26,30.33-12.1-15.12c-.95-1.19-2.39-1.88-3.91-1.88s-2.96.69-3.91,1.88l-16.04,20.05c-.67-.72-1.08-1.67-1.08-2.73v-51.7Z"/>
    <circle class="cls-3" cx="100.03" cy="112.87" r="5.01"/>
  </g>
</svg>