<?xml version="1.0" encoding="UTF-8"?>
<svg id="Ebene_1" data-name="Ebene 1" xmlns="http://www.w3.org/2000/svg" viewBox="0 0 256 256">
  <defs>
    <style>
      .cls-1 {
        fill: none;
      }

      .cls-1, .cls-2 {
        stroke-width: 0px;
      }

      .cls-2 {
        fill: #fff;
        opacity: .66;
      }
    </style>
  </defs>
  <rect class="cls-1" x="0" y="0" width="256" height="256"/>
  <path class="cls-2" d="M185.1,0h-114.21C31.74,0,0,31.75,0,70.9v114.21C0,224.26,31.74,256.01,70.9,256.01h114.21c39.15,0,70.9-31.74,70.9-70.9v-114.21C256,31.75,224.26,0,185.1,0ZM61.27,191.12c-6.97,0-12.62-5.65-12.62-12.62s5.65-12.62,12.62-12.62,12.62,5.65,12.62,12.62-5.65,12.62-12.62,12.62ZM61.27,140.62c-6.97,0-12.62-5.65-12.62-12.62s5.65-12.62,12.62-12.62,12.62,5.65,12.62,12.62-5.65,12.62-12.62,12.62ZM61.27,90.13c-6.97,0-12.62-5.65-12.62-12.62s5.65-12.62,12.62-12.62,12.62,5.65,12.62,12.62-5.65,12.62-12.62,12.62ZM207.36,186.5h-108.21c-4.42,0-8-3.58-8-8s3.58-8,8-8h108.21c4.42,0,8,3.58,8,8s-3.58,8-8,8ZM207.36,136h-108.21c-4.42,0-8-3.58-8-8s3.58-8,8-8h108.21c4.42,0,8,3.58,8,8s-3.58,8-8,8ZM207.36,85.5h-108.21c-4.42,0-8-3.58-8-8s3.58-8,8-8h108.21c4.42,0,8,3.58,8,8s-3.58,8-8,8Z"/>
</svg>