<?xml version="1.0" encoding="UTF-8"?>
<svg id="Ebene_1" data-name="Ebene 1" xmlns="http://www.w3.org/2000/svg" viewBox="0 0 256 256">
  <defs>
    <style>
      .cls-1 {
        fill: none;
      }

      .cls-1, .cls-2 {
        stroke-width: 0px;
      }

      .cls-2 {
        fill: #fff;
        opacity: .66;
      }
    </style>
  </defs>
  <rect class="cls-1" x="0" y="0" width="256" height="256"/>
  <path class="cls-2" d="M128,34.5c-51.64,0-93.5,41.86-93.5,93.5s41.86,93.5,93.5,93.5,93.5-41.86,93.5-93.5-41.86-93.5-93.5-93.5ZM88.67,141.57c-6.71,0-12.16-5.44-12.16-12.16s5.44-12.16,12.16-12.16,12.16,5.44,12.16,12.16-5.44,12.16-12.16,12.16ZM128,141.57c-6.71,0-12.16-5.44-12.16-12.16s5.44-12.16,12.16-12.16,12.16,5.44,12.16,12.16-5.44,12.16-12.16,12.16ZM167.33,141.57c-6.71,0-12.16-5.44-12.16-12.16s5.44-12.16,12.16-12.16,12.16,5.44,12.16,12.16-5.44,12.16-12.16,12.16Z"/>
</svg>