<?xml version="1.0" encoding="UTF-8"?>
<svg id="Ebene_1" data-name="Ebene 1" xmlns="http://www.w3.org/2000/svg" viewBox="0 0 256 256">
  <defs>
    <style>
      .cls-1 {
        fill: none;
      }

      .cls-1, .cls-2 {
        stroke-width: 0px;
      }

      .cls-2 {
        fill: #fff;
        opacity: .66;
      }
    </style>
  </defs>
  <rect class="cls-1" x="0" y="0" width="256" height="256"/>
  <g>
    <path class="cls-2" d="M185.68,120.75h-115.37c-10.31,0-18.7-8.39-18.7-18.7v-24.02c0-10.31,8.39-18.7,18.7-18.7h115.37c10.31,0,18.7,8.39,18.7,18.7v24.02c0,10.31-8.39,18.7-18.7,18.7ZM70.32,75.34c-1.49,0-2.7,1.21-2.7,2.7v24.02c0,1.49,1.21,2.7,2.7,2.7h115.37c1.49,0,2.7-1.21,2.7-2.7v-24.02c0-1.49-1.21-2.7-2.7-2.7h-115.37Z"/>
    <path class="cls-2" d="M129.05,196.66h-59.32c-9.99,0-18.11-8.12-18.11-18.11v-25.19c0-9.99,8.12-18.11,18.11-18.11h59.32c9.99,0,18.11,8.12,18.11,18.11v25.19c0,9.99-8.12,18.11-18.11,18.11ZM69.73,151.25c-1.16,0-2.11.95-2.11,2.11v25.19c0,1.16.95,2.11,2.11,2.11h59.32c1.16,0,2.11-.95,2.11-2.11v-25.19c0-1.16-.95-2.11-2.11-2.11h-59.32Z"/>
  </g>
</svg>