<?xml version="1.0" encoding="UTF-8"?>
<svg id="Ebene_1" data-name="Ebene 1" xmlns="http://www.w3.org/2000/svg" viewBox="0 0 256 256">
  <defs>
    <style>
      .cls-1 {
        fill: none;
      }

      .cls-1, .cls-2 {
        stroke-width: 0px;
      }

      .cls-2 {
        fill: #fff;
        opacity: .66;
      }
    </style>
  </defs>
  <rect class="cls-1" x="0" y="0" width="256" height="256"/>
  <path class="cls-2" d="M185.1,0h-114.21C31.74,0,0,31.74,0,70.9v114.21C0,224.26,31.74,256,70.9,256h114.21c39.15,0,70.9-31.74,70.9-70.9v-114.21C256,31.74,224.26,0,185.1,0ZM147.16,178.55c0,9.99-8.12,18.11-18.11,18.11h-59.32c-9.99,0-18.11-8.12-18.11-18.11v-25.19c0-9.99,8.12-18.11,18.11-18.11h59.32c9.99,0,18.11,8.12,18.11,18.11v25.19ZM204.38,102.05c0,10.31-8.39,18.7-18.7,18.7h-115.37c-10.31,0-18.7-8.39-18.7-18.7v-24.02c0-10.31,8.39-18.7,18.7-18.7h115.37c10.31,0,18.7,8.39,18.7,18.7v24.02Z"/>
</svg>