<?xml version="1.0" encoding="UTF-8"?>
<svg id="Ebene_1" data-name="Ebene 1" xmlns="http://www.w3.org/2000/svg" viewBox="0 0 256 256">
  <defs>
    <style>
      .cls-1 {
        fill: none;
      }

      .cls-1, .cls-2 {
        stroke-width: 0px;
      }

      .cls-3 {
        opacity: .66;
      }

      .cls-2 {
        fill: #fff;
      }
    </style>
  </defs>
  <rect class="cls-1" x="0" y="0" width="256" height="256"/>
  <g id="Gruppe_5" data-name="Gruppe 5" class="cls-3">
    <path class="cls-2" d="M206.39,221.51H49.61c-4.41,0-7.99-3.57-8-7.97,0-.85.13-21.01,17.12-38.06,15.2-15.25,38.51-22.99,69.27-22.99s54.07,7.73,69.27,22.99c16.99,17.05,17.12,37.21,17.12,38.06-.01,4.41-3.59,7.97-8,7.97ZM58.96,205.51h138.08c-3.69-12.95-17.49-37.02-69.04-37.02s-65.34,24.04-69.04,37.02Z"/>
    <g id="Ellipse_4" data-name="Ellipse 4">
      <path class="cls-2" d="M128,58.49c17.02,0,30.87,13.85,30.87,30.87s-13.85,30.87-30.87,30.87-30.87-13.85-30.87-30.87,13.85-30.87,30.87-30.87M128,42.49c-25.88,0-46.87,20.98-46.87,46.87s20.98,46.87,46.87,46.87,46.87-20.98,46.87-46.87-20.98-46.87-46.87-46.87h0Z"/>
    </g>
  </g>
</svg>