<?xml version="1.0" encoding="UTF-8"?>
<svg id="Ebene_1" data-name="Ebene 1" xmlns="http://www.w3.org/2000/svg" viewBox="0 0 256 256">
  <defs>
    <style>
      .cls-1 {
        fill: none;
      }

      .cls-1, .cls-2 {
        stroke-width: 0px;
      }

      .cls-2 {
        fill: #fff;
        opacity: .66;
      }
    </style>
  </defs>
  <rect class="cls-1" x="0" y="0" width="256" height="256"/>
  <path class="cls-2" d="M185.1,0h-114.21C31.74,0,0,31.75,0,70.9v114.21C0,224.26,31.74,256.01,70.9,256.01h114.21c39.15,0,70.9-31.74,70.9-70.9v-114.21C256,31.75,224.26,0,185.1,0ZM128,42.49c25.88,0,46.87,20.98,46.87,46.87s-20.98,46.87-46.87,46.87-46.87-20.98-46.87-46.87,20.98-46.87,46.87-46.87ZM206.39,221.51H49.61c-4.41,0-7.99-3.57-8-7.97,0-.85.13-21.01,17.12-38.06,15.2-15.25,38.51-22.99,69.27-22.99s54.07,7.73,69.27,22.99c16.99,17.05,17.12,37.21,17.12,38.06-.01,4.41-3.59,7.97-8,7.97Z"/>
</svg>