<?xml version="1.0" encoding="UTF-8"?>
<svg id="Ebene_1" data-name="Ebene 1" xmlns="http://www.w3.org/2000/svg" viewBox="0 0 256 256">
  <defs>
    <style>
      .cls-1 {
        fill: none;
      }

      .cls-1, .cls-2 {
        stroke-width: 0px;
      }

      .cls-2 {
        fill: #fff;
        opacity: .66;
      }
    </style>
  </defs>
  <rect class="cls-1" x="0" y="0" width="256" height="256"/>
  <path class="cls-2" d="M185.1,0h-114.21C31.74,0,0,31.74,0,70.9v114.21C0,224.26,31.74,256,70.9,256h114.21c39.15,0,70.9-31.74,70.9-70.9v-114.21C256,31.74,224.26,0,185.1,0ZM118.11,180.6c0,10.21-8.31,18.52-18.52,18.52h-32.22c-10.21,0-18.52-8.31-18.52-18.52v-51.01c0-10.21,8.31-18.52,18.52-18.52h32.22c10.21,0,18.52,8.31,18.52,18.52v51.01ZM207.15,181.08c0,9.95-8.09,18.04-18.04,18.04h-33.18c-9.95,0-18.04-8.09-18.04-18.04v-106.16c0-9.95,8.09-18.04,18.04-18.04h33.18c9.95,0,18.04,8.09,18.04,18.04v106.16Z"/>
</svg>