<?xml version="1.0" encoding="UTF-8"?>
<svg id="Ebene_1" data-name="Ebene 1" xmlns="http://www.w3.org/2000/svg" viewBox="0 0 256 256">
  <defs>
    <style>
      .cls-1 {
        fill: none;
      }

      .cls-1, .cls-2 {
        stroke-width: 0px;
      }

      .cls-2 {
        fill: #fff;
        opacity: .66;
      }
    </style>
  </defs>
  <rect class="cls-1" x="0" y="0" width="256" height="256"/>
  <g>
    <path class="cls-2" d="M99.59,199.12h-32.22c-10.21,0-18.52-8.31-18.52-18.52v-51.01c0-10.21,8.31-18.52,18.52-18.52h32.22c10.21,0,18.52,8.31,18.52,18.52v51.01c0,10.21-8.31,18.52-18.52,18.52ZM67.37,127.07c-1.39,0-2.52,1.13-2.52,2.52v51.01c0,1.39,1.13,2.52,2.52,2.52h32.22c1.39,0,2.52-1.13,2.52-2.52v-51.01c0-1.39-1.13-2.52-2.52-2.52h-32.22Z"/>
    <path class="cls-2" d="M189.11,199.12h-33.18c-9.95,0-18.04-8.09-18.04-18.04v-106.16c0-9.95,8.09-18.04,18.04-18.04h33.18c9.95,0,18.04,8.09,18.04,18.04v106.16c0,9.95-8.09,18.04-18.04,18.04ZM155.93,72.88c-1.13,0-2.04.92-2.04,2.04v106.16c0,1.13.92,2.04,2.04,2.04h33.18c1.13,0,2.04-.92,2.04-2.04v-106.16c0-1.13-.92-2.04-2.04-2.04h-33.18Z"/>
  </g>
</svg>