<?xml version="1.0" encoding="UTF-8"?>
<svg id="Ebene_1" data-name="Ebene 1" xmlns="http://www.w3.org/2000/svg" viewBox="0 0 256 256">
  <defs>
    <style>
      .cls-1 {
        fill: none;
      }

      .cls-1, .cls-2 {
        stroke-width: 0px;
      }

      .cls-2 {
        fill: #fff;
        opacity: .66;
      }
    </style>
  </defs>
  <rect class="cls-1" x="0" y="0" width="256" height="256"/>
  <path class="cls-2" d="M176.34,122.32l-24.04,17.46,9.18,28.26c.83,2.53-.07,5.29-2.23,6.86-2.16,1.57-5.06,1.57-7.22,0l-24.04-17.46-24.04,17.46c-1.08.78-2.34,1.18-3.61,1.18s-2.53-.39-3.61-1.18c-2.16-1.57-3.05-4.33-2.23-6.86l9.18-28.25-24.04-17.46c-2.16-1.57-3.05-4.33-2.23-6.86.82-2.54,3.17-4.24,5.84-4.24h29.71l9.18-28.26c.83-2.54,3.17-4.24,5.84-4.24s5.01,1.7,5.84,4.24l9.18,28.26h29.71c2.67,0,5.01,1.7,5.84,4.24.82,2.54-.07,5.29-2.23,6.86Z"/>
</svg>