<?xml version="1.0" encoding="UTF-8"?>
<svg id="Ebene_1" data-name="Ebene 1" xmlns="http://www.w3.org/2000/svg" viewBox="0 0 256 256">
  <defs>
    <style>
      .cls-1 {
        fill: none;
      }

      .cls-1, .cls-2 {
        stroke-width: 0px;
      }

      .cls-2 {
        fill: #fff;
      }
    </style>
  </defs>
  <rect class="cls-1" x="0" y="0" width="256" height="256"/>
  <path class="cls-2" d="M155.64,176.08c-1.26,0-2.53-.39-3.61-1.18l-24.04-17.46-24.04,17.46c-2.16,1.57-5.06,1.57-7.22,0-2.16-1.57-3.05-4.33-2.23-6.86l9.18-28.26-24.04-17.46c-2.16-1.57-3.05-4.33-2.23-6.86.82-2.54,3.17-4.24,5.84-4.24h29.71l9.18-28.26c.82-2.54,3.17-4.24,5.84-4.24,2.67,0,5.01,1.7,5.84,4.24,0,0,0,0,0,0l9.18,28.26h29.71c2.67,0,5.01,1.7,5.84,4.24.82,2.54-.07,5.29-2.23,6.86l-24.04,17.46,9.18,28.26c.82,2.54-.07,5.29-2.23,6.86-1.08.78-2.34,1.18-3.61,1.18ZM95.21,121.24l17.32,12.58c1.76,1.28,2.49,3.54,1.82,5.6l-6.62,20.36,17.32-12.58c1.76-1.28,4.13-1.28,5.89,0l17.32,12.58-6.62-20.36c-.67-2.06.06-4.32,1.82-5.6l17.32-12.58h-21.41c-2.17,0-4.09-1.4-4.76-3.46l-6.62-20.36-6.62,20.36c-.67,2.06-2.59,3.46-4.76,3.46h-21.41Z"/>
</svg>