<?xml version="1.0" encoding="UTF-8"?>
<svg id="Ebene_1" data-name="Ebene 1" xmlns="http://www.w3.org/2000/svg" viewBox="0 0 256 256">
  <defs>
    <style>
      .cls-1 {
        fill: none;
      }

      .cls-1, .cls-2 {
        stroke-width: 0px;
      }

      .cls-2 {
        fill: #fff;
        opacity: .66;
      }
    </style>
  </defs>
  <rect class="cls-1" x="0" y="0" width="256" height="256"/>
  <path class="cls-2" d="M200.88,81.48c-.68-.84-16.9-20.52-40.33-20.52-14.9,0-25.79,5.15-32.54,10.45-6.76-5.3-17.65-10.45-32.54-10.45-23.43,0-39.66,19.68-40.33,20.52-1.15,1.43-1.79,3.2-1.79,5.04v100.53c0,3.13,1.82,5.97,4.67,7.27,1.07.49,2.2.73,3.33.73,1.88,0,3.74-.66,5.23-1.94,4.34-3.74,17.99-13.45,28.9-13.45,16.35,0,24.48,6.87,26.21,8.53.9,1.19,2.11,2.15,3.58,2.67.17.06.35.09.53.14.13.04.25.07.38.11.22.05.45.09.67.12.19.03.38.05.57.07.2.02.4.02.6.02.2,0,.4,0,.6-.02.19-.01.38-.04.57-.07.22-.03.45-.07.67-.12.13-.03.26-.07.39-.11.18-.05.35-.08.53-.14,1.47-.52,2.68-1.47,3.58-2.67,1.73-1.66,9.86-8.53,26.21-8.53,10.83,0,24.54,9.71,28.9,13.45,1.48,1.27,3.34,1.93,5.22,1.93,1.13,0,2.27-.24,3.33-.73,2.84-1.3,4.67-4.14,4.67-7.27v-100.53c0-1.83-.63-3.61-1.79-5.04ZM69.34,171.81v-82.18c3.94-3.98,13.94-12.67,26.12-12.67,13.94,0,21.58,5.79,24.54,8.72v82.79c-7.28-3.16-15.67-4.81-24.54-4.81-7.89,0-16.67,2.74-26.12,8.16ZM186.66,171.81c-9.45-5.41-18.23-8.16-26.12-8.16-8.87,0-17.27,1.65-24.54,4.81v-82.79c2.97-2.93,10.61-8.72,24.54-8.72,12.19,0,22.19,8.7,26.12,12.67v82.19Z"/>
</svg>