<?xml version="1.0" encoding="UTF-8"?>
<svg id="Ebene_1" data-name="Ebene 1" xmlns="http://www.w3.org/2000/svg" viewBox="0 0 256 256">
  <defs>
    <style>
      .cls-1 {
        fill: none;
      }

      .cls-1, .cls-2 {
        stroke-width: 0px;
      }

      .cls-2 {
        fill: #fff;
        opacity: .66;
      }
    </style>
  </defs>
  <rect class="cls-1" x="0" y="0" width="256" height="256"/>
  <path class="cls-2" d="M185.1,0h-114.21C31.74,0,0,31.74,0,70.9v114.21C0,224.26,31.74,256,70.9,256h114.21c39.15,0,70.9-31.74,70.9-70.9v-114.21C256,31.74,224.26,0,185.1,0ZM121.67,188.19c-1.73-1.66-9.86-8.53-26.21-8.53-10.91,0-24.56,9.71-28.9,13.45-1.48,1.28-3.34,1.94-5.23,1.94-1.13,0-2.27-.24-3.33-.73-2.84-1.3-4.67-4.14-4.67-7.27v-100.53c0-1.83.63-3.61,1.79-5.04.68-.84,16.9-20.52,40.33-20.52,12.51,0,22.19,3.64,28.97,7.94v121.59c-1.1-.55-2.04-1.34-2.76-2.3ZM202.66,187.04c0,3.13-1.82,5.97-4.67,7.27-1.07.49-2.2.73-3.33.73-1.88,0-3.74-.66-5.22-1.93-4.37-3.74-18.07-13.45-28.9-13.45-16.35,0-24.48,6.87-26.21,8.53-.72.96-1.66,1.75-2.76,2.3v-121.59c6.78-4.3,16.46-7.94,28.97-7.94,23.43,0,39.66,19.68,40.33,20.52,1.16,1.43,1.79,3.2,1.79,5.04v100.53Z"/>
</svg>