<?xml version="1.0" encoding="UTF-8"?>
<svg id="Ebene_1" data-name="Ebene 1" xmlns="http://www.w3.org/2000/svg" viewBox="0 0 256 256">
  <defs>
    <style>
      .cls-1 {
        fill: none;
      }

      .cls-1, .cls-2 {
        stroke-width: 0px;
      }

      .cls-2 {
        fill: #fff;
      }
    </style>
  </defs>
  <rect class="cls-1" x="0" y="0" width="256" height="256"/>
  <path id="Differenzmenge_1" data-name="Differenzmenge 1" class="cls-2" d="M173.5,210.93h0c-3.43,3.39-8.02,5.33-12.83,5.44-5.04.11-9.9-1.85-13.45-5.44l-29.33-29.33-17.23,24.28c-.61.86-1.29,1.67-2.04,2.42-7.25,7.22-18.97,7.2-26.21-.03l-7.69-7.69L214.73,50.58c1.78,3.9,2.13,8.3.99,12.43l-37.45,139.6c-.82,3.14-2.46,6.01-4.76,8.31ZM208.87,43.32L58.17,194.03l-10.44-10.44c-7.23-7.23-7.25-18.96-.03-26.21.75-.75,1.56-1.43,2.42-2.04l24.29-17.23-29.33-29.33c-3.59-3.54-5.55-8.4-5.44-13.44.11-4.82,2.06-9.41,5.44-12.84,2.3-2.3,5.17-3.94,8.31-4.76l139.62-37.47c5.48-1.48,11.33-.36,15.87,3.05h0Z"/>
</svg>