<?xml version="1.0" encoding="UTF-8"?>
<svg id="Ebene_1" data-name="Ebene 1" xmlns="http://www.w3.org/2000/svg" viewBox="0 0 256 256">
  <defs>
    <style>
      .cls-1 {
        fill: none;
      }

      .cls-1, .cls-2 {
        stroke-width: 0px;
      }

      .cls-2 {
        fill: #fff;
        opacity: .66;
      }
    </style>
  </defs>
  <rect class="cls-1" x="0" y="0" width="256" height="256"/>
  <path class="cls-2" d="M93.52,208.75c-2.07,0-4.17-.45-6.16-1.37-5.24-2.41-8.49-7.5-8.49-13.26v-17.4c-22.24-.74-40.1-19.06-40.1-41.47v-46.49c0-22.88,18.61-41.49,41.49-41.49h95.28c22.88,0,41.49,18.61,41.49,41.49v46.49c0,22.88-18.61,41.49-41.49,41.49h-39.21l-33.38,28.49c-2.72,2.32-6.05,3.52-9.44,3.52ZM80.27,63.26c-14.06,0-25.49,11.44-25.49,25.49v46.49c0,14.06,11.44,25.49,25.49,25.49,8.05,0,14.6,6.55,14.6,14.6v15.75l31.47-26.86c2.64-2.25,6.01-3.5,9.48-3.5h39.73c14.06,0,25.49-11.44,25.49-25.49v-46.49c0-14.06-11.44-25.49-25.49-25.49h-95.28Z"/>
</svg>